<svg xmlns="http://www.w3.org/2000/svg" fill="white" width="142.202" height="166.406" viewBox="0 0 142.202 166.406">
<defs>
<style>
  .mouse:hover{
    fill: #FF7477;
  }
</style>
</defs>
  <g class="mouse">
    <g>
      <path d="M110.383,34.767c-28.725,30.3-62.2,50.861-100.059,62.454C-4.419,62.2-.393,26.321,21.519,10.1l14.97,23.983c-3.011,4.739-2.026,13.314,2.867,21.152,5.92,9.486,15.323,14.3,21,10.76s5.478-14.1-.442-23.59c-4.895-7.841-12.165-12.492-17.743-11.867L27.2,6.554C51.4-6.007,85.4,6.139,110.383,34.767Z"/>
      <path d="M64.962,74.15l-.343.214A228.935,228.935,0,0,1,10.791,98.746l-1.377.421L8.855,97.84C1.566,80.527-1.368,62.264.594,46.415c2.032-16.426,8.94-29.427,19.977-37.6l1.387-1.027,16.415,26.3-.539.847C35.082,39.27,36.263,47.27,40.708,54.39c5.353,8.577,13.963,13.272,18.8,10.252s4.4-12.817-.951-21.394c-4.446-7.123-11.113-11.7-16.213-11.127l-1,.112L24.933,5.934l1.532-.795c12.189-6.326,26.9-6.821,42.552-1.431,15.1,5.2,30.216,15.858,42.567,30.011l.954,1.093-1,1.052A238.142,238.142,0,0,1,64.962,74.15ZM11.241,95.268C48.151,83.712,80.767,63.35,108.22,34.726c-11.807-13.2-26.049-23.116-40.241-28-14.138-4.869-27.4-4.695-38.494.483L43.018,28.887c6.164-.1,13.367,4.856,18.246,12.673,6.485,10.389,6.456,21.716-.066,25.787S44.488,66.468,38,56.078c-4.877-7.814-6.167-16.463-3.369-21.957L21.1,12.438C11.578,20.126,5.6,31.966,3.758,46.806,1.914,61.707,4.57,78.863,11.241,95.268Z"/>
    </g>
    <g>
      <path d="M122.484,51.126c25.852,41.417,23.8,89.351-4.583,107.067s-72.345-1.5-98.2-42.915q-3.146-5.039-5.736-10.183A233.726,233.726,0,0,0,115.856,41.5Q119.332,46.084,122.484,51.126Z"/>
      <path d="M118.746,159.546c-14.186,8.854-32.487,9.147-51.53.825-18.839-8.233-36.193-23.948-48.864-44.249-2.1-3.358-4.05-6.827-5.807-10.309l-.848-1.68,1.8-.56A233.207,233.207,0,0,0,114.7,40.405l1.292-1.368,1.137,1.5c2.357,3.11,4.615,6.389,6.71,9.746,12.672,20.3,19.167,42.794,18.288,63.334C141.235,134.379,132.932,150.691,118.746,159.546Zm-102.5-53.5c1.485,2.835,3.1,5.649,4.807,8.389,25.345,40.6,68.41,59.628,96,42.407s29.419-64.266,4.075-104.871c-1.71-2.739-3.53-5.424-5.425-8A238.944,238.944,0,0,1,69.914,81.3l0,0A238.984,238.984,0,0,1,16.249,106.045Z"/>
    </g>
    <path d="M61.2,67.347c-6.522,4.07-16.71-.879-23.195-11.269-5.151-8.252-6.3-17.435-2.86-22.851a9.173,9.173,0,0,1,6.849-4.275c6.374-.714,14.119,4.352,19.272,12.608C67.749,51.949,67.72,63.276,61.2,67.347ZM39.758,33a6.113,6.113,0,0,0-1.923,1.94C35.082,39.27,36.263,47.27,40.708,54.39c5.353,8.577,13.963,13.272,18.8,10.252s4.4-12.817-.951-21.394c-4.446-7.123-11.113-11.7-16.213-11.127A6.131,6.131,0,0,0,39.758,33Z"/>
  </g>
</svg>
